<?xml version="1.0" encoding="UTF-8"?>
<svg version="1.1" xmlns="http://www.w3.org/2000/svg" width="590" height="423">
<path d="M0 0 C1.31962059 -0.00226556 2.63924119 -0.00453111 3.99885029 -0.00686532 C7.63755262 -0.01294648 11.27623185 -0.0128541 14.91493809 -0.01167095 C18.84900647 -0.011466 22.78306761 -0.01699471 26.71713257 -0.02172852 C34.41643008 -0.03001584 42.11571993 -0.03278251 49.81502152 -0.03334089 C56.07846371 -0.03381705 62.34190338 -0.03587677 68.60534477 -0.03904152 C86.3895075 -0.04784356 104.1736642 -0.0524617 121.95782913 -0.05171105 C123.39432848 -0.05165111 123.39432848 -0.05165111 124.85984802 -0.05158997 C125.81869292 -0.05154909 126.77753781 -0.0515082 127.76543861 -0.05146609 C143.29239176 -0.05105994 158.81932062 -0.06062262 174.34626675 -0.07472833 C190.31487239 -0.08911999 206.2834662 -0.09599696 222.25207847 -0.09513456 C231.20683597 -0.09480351 240.16156802 -0.09751003 249.11631966 -0.10831261 C256.74295036 -0.11745448 264.36954408 -0.11956283 271.99617792 -0.11280318 C275.8808155 -0.10955623 279.76538229 -0.10941453 283.65001297 -0.11815643 C323.65939958 -0.2024068 357.76397708 5.3676177 387.36155701 34.63371277 C398.61155701 46.10711702 398.61155701 46.10711702 398.61155701 50.13371277 C399.27155701 50.13371277 399.93155701 50.13371277 400.61155701 50.13371277 C402.23265076 52.54777527 402.23265076 52.54777527 404.04905701 55.75871277 C404.64589294 56.80285339 405.24272888 57.84699402 405.85765076 58.92277527 C411.02995313 68.39189008 411.02995313 68.39189008 410.61155701 73.13371277 C411.27155701 73.13371277 411.93155701 73.13371277 412.61155701 73.13371277 C413.44232212 75.83753134 414.25085265 78.54525775 415.04905701 81.25871277 C415.39420349 82.37052917 415.39420349 82.37052917 415.74632263 83.50480652 C419.36851835 95.99875698 418.75887739 109.29716709 418.74095154 122.19816589 C418.74231018 123.86222369 418.74409269 125.52628119 418.7462616 127.19033813 C418.75078093 131.66758667 418.74906922 136.14481189 418.74588251 140.62206078 C418.74333026 145.33334282 418.74570437 150.04462302 418.74726868 154.75590515 C418.74908206 162.66390843 418.74670593 170.57190233 418.7419281 178.47990417 C418.73648709 187.5901065 418.73825034 196.70028644 418.74375451 205.81048822 C418.74830937 213.66740182 418.7489246 221.52430871 418.74631584 229.3812232 C418.74476609 234.05845347 418.74452328 238.73567326 418.74785233 243.41290283 C418.75076569 247.81250099 418.74869243 252.21207061 418.74295807 256.61166573 C418.7416489 258.21512874 418.74199273 259.8185942 418.74422073 261.4220562 C418.77714816 287.55181399 418.77714816 287.55181399 415.61155701 298.88371277 C415.43366638 299.56691589 415.25577576 300.25011902 415.07249451 300.95402527 C414.41026571 303.45468027 413.77151359 305.81379961 412.61155701 308.13371277 C411.95155701 308.13371277 411.29155701 308.13371277 410.61155701 308.13371277 C410.54968201 309.06183777 410.48780701 309.98996277 410.42405701 310.94621277 C409.68140894 316.41480308 407.01528937 321.22867957 404.61155701 326.13371277 C403.95155701 326.13371277 403.29155701 326.13371277 402.61155701 326.13371277 C402.38468201 327.02058777 402.15780701 327.90746277 401.92405701 328.82121277 C400.69509571 331.92287699 399.63094843 333.39382971 397.21702576 335.60246277 C395.13520975 337.58803911 393.267165 339.72867964 391.36155701 341.88371277 C370.50893618 365.03046429 344.92141605 379.5498846 313.24047101 381.32231212 C309.65180516 381.39481556 306.06778225 381.41002774 302.47839355 381.40113831 C301.10104244 381.4048847 299.72369345 381.40949012 298.34634775 381.41486895 C294.59864067 381.42699273 290.85102357 381.42685117 287.10330141 381.4244802 C283.04647945 381.4240693 278.98968532 381.43513716 274.93287659 381.44459534 C266.99769018 381.461149 259.0625335 381.46670237 251.12733126 381.46782009 C244.66949259 381.46877346 238.21166364 381.47289814 231.75382805 381.47922134 C213.40400161 381.49682014 195.05419847 381.50606261 176.70436353 381.5045604 C175.71685017 381.50448048 174.72933681 381.50440057 173.7118988 381.50431824 C172.7231652 381.50423648 171.73443161 381.50415471 170.71573638 381.50407048 C154.71056548 381.50325847 138.70548888 381.52237819 122.70034523 381.55059497 C106.22649997 381.57940643 89.75270057 381.59313066 73.27882951 381.59140742 C64.04614713 381.59074625 54.81356355 381.59611748 45.58090401 381.61776352 C37.71657079 381.63608468 29.85238114 381.64023398 21.98803569 381.62674467 C17.98521764 381.620269 13.98267414 381.61989862 9.97988319 381.63745117 C-27.49144629 381.79106752 -59.50629623 375.711064 -87.02906799 348.60636902 C-103.38844299 331.97556457 -103.38844299 331.97556457 -103.38844299 326.13371277 C-104.37844299 325.80371277 -105.36844299 325.47371277 -106.38844299 325.13371277 C-108.42934302 321.78515542 -109.84316569 318.1082999 -111.38844299 314.50871277 C-111.82672424 313.54191589 -112.26500549 312.57511902 -112.71656799 311.57902527 C-118.93682073 297.26494969 -119.83550299 283.4433382 -119.79249573 268.09147644 C-119.79821231 266.22686355 -119.8051815 264.36225415 -119.81329346 262.49765015 C-119.83109917 257.47677748 -119.83008021 252.45608079 -119.82435107 247.43518615 C-119.82124041 243.22348623 -119.8273725 239.0118192 -119.83338982 234.80012399 C-119.84739258 224.85326782 -119.84590971 214.90649761 -119.83448792 204.9596405 C-119.8230151 194.74343692 -119.83707814 184.52749613 -119.86388439 174.31132716 C-119.88613237 165.49805882 -119.89265825 156.68487242 -119.88680798 147.87157804 C-119.88345838 142.62631862 -119.88571906 137.38122749 -119.90305901 132.13599205 C-119.91867162 127.19863728 -119.91441606 122.26166781 -119.89575386 117.32432747 C-119.892107 115.52742454 -119.8950602 113.73049213 -119.90563965 111.93361664 C-120.07766982 80.26134173 -108.7585293 56.85239635 -87.84156799 33.43449402 C-86.38844299 32.13371277 -86.38844299 32.13371277 -84.38844299 32.13371277 C-83.89344299 30.64871277 -83.89344299 30.64871277 -83.38844299 29.13371277 C-81.48538226 27.44603721 -79.60413668 25.90637549 -77.57594299 24.38371277 C-76.99062805 23.94124207 -76.40531311 23.49877136 -75.80226135 23.04289246 C-53.15065625 6.21058022 -27.8226228 -0.03531819 0 0 Z " fill="#E13A28" transform="translate(149.38844299316406,29.866287231445313)"/>
<path d="M0 0 C2.22061385 -0.00599356 4.44122563 -0.012801 6.66183472 -0.02035522 C12.66202625 -0.03793695 18.66216064 -0.04270726 24.66237545 -0.0439868 C28.41932447 -0.04541327 32.1762592 -0.0496922 35.93320465 -0.05498123 C48.3872445 -0.0725037 60.84125678 -0.08182471 73.29530749 -0.08032028 C73.96452594 -0.08024037 74.63374439 -0.08016046 75.32324219 -0.08007812 C76.32831624 -0.07995548 76.32831624 -0.07995548 77.35369483 -0.07983036 C88.2052079 -0.07901798 99.05658201 -0.09815166 109.90805492 -0.12635486 C121.09002417 -0.15518436 132.27194275 -0.16852464 143.45395398 -0.16716731 C149.71587439 -0.16665953 155.9776373 -0.17224053 162.23952484 -0.19352341 C168.13301884 -0.21300968 174.02620673 -0.21295956 179.91971207 -0.19849014 C182.07018867 -0.19641388 184.22068497 -0.20103147 186.37112808 -0.21321106 C208.64198868 -0.33107884 226.3910689 4.13561007 245.86425781 15.29052734 C245.86425781 15.95052734 245.86425781 16.61052734 245.86425781 17.29052734 C246.42628906 17.53931641 246.98832031 17.78810547 247.56738281 18.04443359 C262.53369548 26.16391275 272.05650334 43.85979306 277.10253906 59.46630859 C279.08019715 66.79885626 279.04766504 73.93505136 279.05175781 81.47802734 C279.06400391 82.6465625 279.07625 83.81509766 279.08886719 85.01904297 C279.10641635 95.50759179 278.02129226 104.86824314 273.55175781 114.41552734 C273.09144165 115.43356445 273.09144165 115.43356445 272.62182617 116.47216797 C270.29227481 121.55482548 267.75197086 126.49985132 264.86425781 131.29052734 C264.20425781 131.29052734 263.54425781 131.29052734 262.86425781 131.29052734 C262.61546875 131.85255859 262.36667969 132.41458984 262.11035156 132.99365234 C253.65986317 148.57010117 235.05475546 157.9788712 218.86425781 163.29052734 C197.75790814 168.82148671 173.85196429 165.85746917 154.86425781 155.29052734 C150.60976142 152.61461702 146.72320326 149.50335136 142.86425781 146.29052734 C142.20039063 145.77748047 141.53652344 145.26443359 140.85253906 144.73583984 C135.11715626 140.1733106 129.34993863 134.03709104 126.63696289 127.19555664 C124.96855045 124.71943712 124.02470506 124.32574234 121.05958557 123.67495728 C117.23756719 123.37441523 113.4377573 123.26803784 109.60644531 123.24755859 C108.17879118 123.22571809 106.75114818 123.20313865 105.32351685 123.17985535 C102.32902839 123.13942912 99.33556732 123.12430477 96.34082031 123.1237793 C92.52507018 123.11881733 88.71697488 123.02682432 84.90316582 122.9119463 C81.95149791 122.83721041 79.00163057 122.822384 76.0491066 122.82349205 C74.64478323 122.81463595 73.24041376 122.78482817 71.83703232 122.73264503 C64.1201414 122.38323895 64.1201414 122.38323895 57.32865143 125.54113388 C54.43296779 128.61143411 52.1757087 132.02579266 49.96526814 135.60651398 C47.43743042 139.47288327 44.44359013 143.13358733 40.74316406 145.92333984 C39.9281543 146.54402344 39.9281543 146.54402344 39.09667969 147.17724609 C38.54560547 147.58587891 37.99453125 147.99451172 37.42675781 148.41552734 C36.87955078 148.83189453 36.33234375 149.24826172 35.76855469 149.67724609 C17.92332107 163.15092544 -4.19043815 167.33256832 -26.26757812 165.07226562 C-46.86121215 162.19037242 -64.88693264 152.22690875 -78.13574219 136.29052734 C-80.71871596 132.74536081 -82.97920164 129.10687719 -85.13574219 125.29052734 C-85.73128906 124.31986328 -85.73128906 124.31986328 -86.33886719 123.32958984 C-88.49648348 119.77113313 -90.03165225 116.17373498 -91.41308594 112.27099609 C-92.11835831 110.33816856 -92.91819265 108.47942994 -93.76074219 106.60302734 C-99.36502107 93.10181004 -98.09738324 69.26269184 -93.47949219 55.45849609 C-86.7216275 39.5264372 -86.7216275 39.5264372 -82.13574219 35.29052734 C-81.05762729 33.90671911 -79.99638201 32.50967579 -78.94824219 31.10302734 C-73.87935259 24.53699736 -68.39331934 18.43771429 -61.13574219 14.29052734 C-60.47574219 14.29052734 -59.81574219 14.29052734 -59.13574219 14.29052734 C-59.13574219 13.63052734 -59.13574219 12.97052734 -59.13574219 12.29052734 C-56.26283846 10.99416219 -53.38706057 9.70429635 -50.51074219 8.41552734 C-49.7025 8.05072266 -48.89425781 7.68591797 -48.06152344 7.31005859 C-47.26875 6.95556641 -46.47597656 6.60107422 -45.65917969 6.23583984 C-44.57515869 5.74881592 -44.57515869 5.74881592 -43.46923828 5.25195312 C-29.45430671 -0.52235118 -14.87757541 -0.00804819 0 0 Z " fill="#FEFDFD" transform="translate(210.1357421875,145.70947265625)"/>
<path d="M0 0 C8.25 0 16.5 0 25 0 C26.38308781 2.76617563 26.11210196 5.01018 26.09765625 8.1015625 C26.09443359 9.31328125 26.09121094 10.525 26.08789062 11.7734375 C26.07532227 13.67996094 26.07532227 13.67996094 26.0625 15.625 C26.05798828 16.90375 26.05347656 18.1825 26.04882812 19.5 C26.03701203 22.66671292 26.02053815 25.83333356 26 29 C27.21115479 28.98428955 27.21115479 28.98428955 28.44677734 28.96826172 C32.08948682 28.92680169 35.73214675 28.90070562 39.375 28.875 C41.28152344 28.84986328 41.28152344 28.84986328 43.2265625 28.82421875 C44.43828125 28.81777344 45.65 28.81132812 46.8984375 28.8046875 C48.01911621 28.79421387 49.13979492 28.78374023 50.29443359 28.77294922 C53 29 53 29 55 31 C55.25878906 33.30664063 55.25878906 33.30664063 55.265625 36.15625 C55.26949219 37.68958984 55.26949219 37.68958984 55.2734375 39.25390625 C55.26570313 40.32511719 55.25796875 41.39632812 55.25 42.5 C55.26160156 44.10681641 55.26160156 44.10681641 55.2734375 45.74609375 C55.27085937 46.76832031 55.26828125 47.79054687 55.265625 48.84375 C55.26336914 49.78412109 55.26111328 50.72449219 55.25878906 51.69335938 C55 54 55 54 53 56 C50.29443359 56.22705078 50.29443359 56.22705078 46.8984375 56.1953125 C45.80708496 56.19031738 44.71573242 56.18532227 43.59130859 56.18017578 C42.19992676 56.16196777 40.80854492 56.14375977 39.375 56.125 C34.96125 56.08375 30.5475 56.0425 26 56 C26 64.91 26 73.82 26 83 C22.25270107 84.87364947 21.03063213 85.25510782 17.0859375 85.265625 C15.69761719 85.26949219 15.69761719 85.26949219 14.28125 85.2734375 C13.3221875 85.26570313 12.363125 85.25796875 11.375 85.25 C10.40820312 85.25773437 9.44140625 85.26546875 8.4453125 85.2734375 C7.52234375 85.27085937 6.599375 85.26828125 5.6484375 85.265625 C4.80458496 85.26336914 3.96073242 85.26111328 3.09130859 85.25878906 C1 85 1 85 -1 83 C-1.22705078 80.29443359 -1.22705078 80.29443359 -1.1953125 76.8984375 C-1.18886719 75.68671875 -1.18242187 74.475 -1.17578125 73.2265625 C-1.15902344 71.95554687 -1.14226562 70.68453125 -1.125 69.375 C-1.11597656 68.09625 -1.10695312 66.8175 -1.09765625 65.5 C-1.07402303 62.33314833 -1.04107629 59.16666576 -1 56 C-2.21115479 56.01571045 -2.21115479 56.01571045 -3.44677734 56.03173828 C-7.08948682 56.07319831 -10.73214675 56.09929438 -14.375 56.125 C-15.64601562 56.14175781 -16.91703125 56.15851563 -18.2265625 56.17578125 C-19.43828125 56.18222656 -20.65 56.18867188 -21.8984375 56.1953125 C-23.01911621 56.20578613 -24.13979492 56.21625977 -25.29443359 56.22705078 C-28 56 -28 56 -30 54 C-30.24291992 51.69335938 -30.24291992 51.69335938 -30.23046875 48.84375 C-30.22853516 47.82152344 -30.22660156 46.79929688 -30.22460938 45.74609375 C-30.21236328 44.67488281 -30.20011719 43.60367188 -30.1875 42.5 C-30.18685547 41.42878906 -30.18621094 40.35757813 -30.18554688 39.25390625 C-30.14030114 31.28060228 -30.14030114 31.28060228 -29 29 C-19.76 29 -10.52 29 -1 29 C-1.0395608 20.20431495 -1.0395608 20.20431495 -1.09008789 11.40869141 C-1.09258545 10.31733887 -1.09508301 9.22598633 -1.09765625 8.1015625 C-1.10551147 6.42054443 -1.10551147 6.42054443 -1.11352539 4.70556641 C-1 2 -1 2 0 0 Z " fill="#462E6F" transform="translate(184,187)"/>
<path d="M0 0 C3.68779885 2.42751897 6.01190184 5.16484752 7.25 9.4375 C7.64699271 14.62271086 7.18746874 18.24666133 3.9375 22.375 C2.6071875 23.3959375 2.6071875 23.3959375 1.25 24.4375 C0.38375 25.3346875 0.38375 25.3346875 -0.5 26.25 C-4.15043009 28.17661588 -7.72167476 28.08091306 -11.75 27.4375 C-16.39425866 24.94336109 -20.06375022 22.49624933 -21.75 17.4375 C-21.86687338 15.96163385 -21.92501742 14.48043388 -21.9375 13 C-21.95167969 12.23816406 -21.96585937 11.47632813 -21.98046875 10.69140625 C-21.72612666 8.20402685 -20.99017196 6.58941894 -19.75 4.4375 C-19.09 4.4375 -18.43 4.4375 -17.75 4.4375 C-17.5025 3.81875 -17.255 3.2 -17 2.5625 C-13.49299146 -3.39941452 -5.55912552 -2.78554032 0 0 Z " fill="#5765A9" transform="translate(387.75,216.5625)"/>
<path d="M0 0 C4.33016426 1.84632243 6.58289379 4.30916784 9 8.3125 C10.16839971 12.62097394 10.4156843 15.75294711 9 20 C6.63452917 24.03949635 3.37540685 27.3095019 -1 29 C-6.95380416 29.26510445 -11.46085085 27.99877425 -16 24 C-19.25015553 19.23310522 -19.53218983 15.58799317 -19 10 C-15.4166152 1.7016352 -8.51667344 -1.21268509 0 0 Z " fill="#5FB7A2" transform="translate(412,242)"/>
<path d="M0 0 C4.09654863 5.21378917 4.72950055 8.15939792 4.0625 14.625 C2.84639152 18.98868336 1.60611262 21.62435796 -2.1875 24.0625 C-6.98863025 26.40747309 -11.02740969 26.2744307 -16.0625 24.5625 C-20.19220981 21.77943469 -23.32424976 18.62182664 -24.3515625 13.6015625 C-24.59853585 7.7415584 -22.66668037 3.75765578 -19.0625 -0.6875 C-13.58834814 -5.03462059 -5.2344321 -4.23209404 0 0 Z " fill="#D85178" transform="translate(443.9375,218.375)"/>
<path d="M0 0 C3.62763311 1.68872576 5.35526744 2.71053489 7.140625 6.28125 C8.0895704 9.28336818 8.20064634 11.67317702 8.125 14.8125 C8.10695313 15.78832031 8.08890625 16.76414063 8.0703125 17.76953125 C8.04710937 18.50558594 8.02390625 19.24164063 8 20 C7.34 20 6.68 20 6 20 C5.5359375 20.928125 5.5359375 20.928125 5.0625 21.875 C3 26 3 26 0.3125 27.125 C-4.40068757 28.36999294 -7.53261625 28.55760583 -12.125 26.8125 C-16.21582015 24.23350469 -18.47077083 21.58768752 -20 17 C-20.49203911 10.48048176 -19.17064389 6.66078929 -15.0625 1.625 C-10.18827417 -0.96132391 -5.39475917 -0.72270793 0 0 Z " fill="#E48D3F" transform="translate(413,189)"/>
<path d="M0 0 C8.3715381 12.55730714 6.14955725 31.55361117 6.12939453 46.06445312 C6.13075317 47.72851093 6.13253569 49.39256842 6.13470459 51.05662537 C6.13922392 55.5338739 6.13751222 60.01109912 6.1343255 64.48834801 C6.13177325 69.19963005 6.13414736 73.91091025 6.13571167 78.62219238 C6.13752505 86.53019566 6.13514892 94.43818956 6.13037109 102.34619141 C6.12493008 111.45639373 6.12669333 120.56657367 6.1321975 129.67677546 C6.13675237 137.53368905 6.1373676 145.39059595 6.13475883 153.24751043 C6.13320908 157.9247407 6.13296627 162.60196049 6.13629532 167.27919006 C6.13920868 171.67878822 6.13713542 176.07835784 6.13140106 180.47795296 C6.1300919 182.08141597 6.13043573 183.68488143 6.13266373 185.28834343 C6.16559116 211.41810122 6.16559116 211.41810122 3 222.75 C2.82210937 223.43320312 2.64421875 224.11640625 2.4609375 224.8203125 C1.7987087 227.3209675 1.15995658 229.68008684 0 232 C-0.66 232 -1.32 232 -2 232 C-2 233.65 -2 235.3 -2 237 C-2.33 237 -2.66 237 -3 237 C-3 234.69 -3 232.38 -3 230 C-2.34 230 -1.68 230 -1 230 C-1.061875 228.1128125 -1.061875 228.1128125 -1.125 226.1875 C-1.2390374 222.70935927 -1.05925681 222.08888522 1 219 C1.46877474 216.45444433 1.83160005 213.9901809 2.10882568 211.42326355 C2.23520782 210.29097739 2.23520782 210.29097739 2.36414313 209.13581675 C3.22134197 200.83243843 3.28157025 192.56706136 3.25878906 184.2277832 C3.26150817 182.52387341 3.2650742 180.8199648 3.26940918 179.11605835 C3.27842419 174.54392675 3.27503511 169.97188674 3.26865101 165.39975381 C3.26353641 160.58438665 3.26829723 155.76902658 3.27142334 150.95365906 C3.27504619 142.87526054 3.27030719 134.79689878 3.26074219 126.71850586 C3.24984982 117.41224583 3.25339572 108.1060734 3.264395 98.79981548 C3.27350279 90.76873955 3.27473647 82.73768981 3.26951766 74.70661038 C3.26641851 69.92769161 3.26593175 65.14881389 3.27259064 60.36989784 C3.27841498 55.87748152 3.27427523 51.38517705 3.26280212 46.89277267 C3.260183 45.25544482 3.26087288 43.61810736 3.26532745 41.98078346 C3.28929601 32.26725466 3.24134281 22.5108609 1 13 C0.34 12.34 -0.32 11.68 -1 11 C-0.34 11 0.32 11 1 11 C0.67 7.37 0.34 3.74 0 0 Z " fill="#D36555" transform="translate(562,106)"/>
<path d="M0 0 C0.33 0 0.66 0 1 0 C1.28599705 7.29292478 1.30769324 16.38461352 -2 23 C-2.09968434 25.40243011 -2.13898821 27.77597948 -2.13371277 30.17875671 C-2.13597833 30.92690024 -2.13824388 31.67504376 -2.14057809 32.4458583 C-2.14693499 34.96611826 -2.14608764 37.48632468 -2.14526367 40.0065918 C-2.1482542 41.80831472 -2.15165648 43.610037 -2.15544128 45.41175842 C-2.1642985 50.31691566 -2.16662018 55.22205546 -2.16725707 60.12721992 C-2.16820523 64.21999796 -2.17188264 68.31277192 -2.17542917 72.40554839 C-2.18358104 82.06358058 -2.18601282 91.72160344 -2.18530273 101.37963867 C-2.18470243 111.34293681 -2.19524303 121.30618073 -2.2110464 131.26946515 C-2.22412554 139.81986518 -2.22948644 148.3702475 -2.22884732 156.92065746 C-2.22859235 162.0287811 -2.2314428 167.13685663 -2.24202538 172.24497032 C-2.25171207 177.05233292 -2.25178157 181.85960147 -2.24450874 186.66696739 C-2.24346346 188.42978045 -2.24582243 190.19259938 -2.2518692 191.95540237 C-2.25960048 194.36582016 -2.25493679 196.77591413 -2.24723816 199.18632507 C-2.2549535 200.22759561 -2.2549535 200.22759561 -2.26282471 201.28990191 C-2.23082935 205.83755461 -1.3509604 209.67492919 0 214 C0.1953125 216.87109375 0.1953125 216.87109375 0.125 219.4375 C0.10695313 220.30246094 0.08890625 221.16742188 0.0703125 222.05859375 C0.04710937 222.69925781 0.02390625 223.33992187 0 224 C0.66 224 1.32 224 2 224 C2.33 226.64 2.66 229.28 3 232 C-5.08590174 223.91409826 -4.38542843 206.88402163 -4.41769409 196.14907837 C-4.41345809 194.41863935 -4.40890044 192.68820109 -4.40405273 190.95776367 C-4.40976932 189.09315078 -4.41673851 187.22854138 -4.42485046 185.36393738 C-4.44265618 180.34306471 -4.44163721 175.32236802 -4.43590808 170.30147338 C-4.43279742 166.08977346 -4.4389295 161.87810643 -4.44494683 157.66641122 C-4.45894958 147.71955505 -4.45746671 137.77278484 -4.44604492 127.82592773 C-4.43457211 117.60972415 -4.44863515 107.39378336 -4.4754414 97.17761439 C-4.49768937 88.36434606 -4.50421525 79.55115966 -4.49836498 70.73786527 C-4.49501538 65.49260585 -4.49727606 60.24751472 -4.51461601 55.00227928 C-4.53022863 50.06492451 -4.52597307 45.12795504 -4.50731087 40.1906147 C-4.50366401 38.39371177 -4.5066172 36.59677936 -4.51719666 34.79990387 C-4.58302083 22.68109218 -3.08881778 11.72462607 0 0 Z " fill="#C74E3F" transform="translate(34,107)"/>
<path d="M0 0 C0.99 0.495 0.99 0.495 2 1 C-2.23184486 4.92219768 -5.2569323 6.67467669 -11 8 C-11.66 8.33 -12.32 8.66 -13 9 C-14.71233688 8.9129796 -16.42175406 8.75902838 -18.125 8.5625 C-19.49011719 8.40974609 -19.49011719 8.40974609 -20.8828125 8.25390625 C-21.58148438 8.17011719 -22.28015625 8.08632813 -23 8 C-23 8.66 -23 9.32 -23 10 C-49.54604477 10.81295308 -49.54604477 10.81295308 -62 6 C-63.99790179 5.32707141 -65.99734584 4.6586507 -68 4 C-68 3.34 -68 2.68 -68 2 C-65.04635925 2.41213592 -62.38454761 2.84391521 -59.61328125 3.96875 C-44.12893504 10.07916465 -21.46450113 8.69251807 -6.01171875 2.875 C-3.99320259 1.94783468 -1.99371103 0.97936682 0 0 Z " fill="#D7594D" transform="translate(231,303)"/>
<path d="M0 0 C0.66353485 0.00960754 1.3270697 0.01921509 2.01071167 0.02911377 C4.20760594 0.06213916 6.40430353 0.10245779 8.60107422 0.14282227 C10.12278547 0.16711994 11.64450404 0.19096367 13.16622925 0.21437073 C17.17433998 0.27724684 21.18232153 0.34630344 25.19030762 0.41662598 C29.27899281 0.48727761 33.36776971 0.55211353 37.45654297 0.61743164 C45.48138408 0.74648943 53.50609807 0.88207337 61.53076172 1.02172852 C61.20076172 2.34172852 60.87076172 3.66172852 60.53076172 5.02172852 C60.03576172 4.03172852 60.03576172 4.03172852 59.53076172 3.02172852 C51.15966756 2.8360714 42.78943817 2.6940778 34.41679192 2.60723114 C30.52858464 2.56554015 26.64178918 2.50903366 22.75439453 2.41821289 C19.00007475 2.3310537 15.24710927 2.28340857 11.49185562 2.26271057 C10.06197919 2.24796887 8.63217404 2.21917801 7.20287704 2.17588806 C-0.7715165 1.68249044 -0.7715165 1.68249044 -7.7177124 4.85595703 C-9.23114915 6.85477547 -10.42365432 8.7477355 -11.46923828 11.02172852 C-12.46923828 8.02172852 -12.46923828 8.02172852 -11.76220703 6.23266602 C-11.215 5.32387695 -11.215 5.32387695 -10.65673828 4.39672852 C-10.29966797 3.78571289 -9.94259766 3.17469727 -9.57470703 2.54516602 C-7.11036016 -0.85093038 -3.86860616 -0.06423885 0 0 Z " fill="#FECEC7" transform="translate(274.46923828125,266.978271484375)"/>
<path d="M0 0 C5.45520383 8.18280575 5.42457201 18.47144911 5.29296875 27.984375 C5.28872391 29.16598206 5.28447906 30.34758911 5.28010559 31.56500244 C5.26347753 35.29357896 5.22585515 39.02159025 5.1875 42.75 C5.17243266 45.29686713 5.15874787 47.84374283 5.14648438 50.390625 C5.1136262 56.59393885 5.06358797 62.79692902 5 69 C4.67 69 4.34 69 4 69 C3.98018066 67.80101074 3.96036133 66.60202148 3.93994141 65.36669922 C3.86298045 60.85251366 3.77441525 56.3386132 3.68261719 51.82470703 C3.64469646 49.88335868 3.60978463 47.94194883 3.578125 46.00048828 C4.60343009 27.3217541 4.60343009 27.3217541 -1 11 C-0.34 11 0.32 11 1 11 C0.67 7.37 0.34 3.74 0 0 Z " fill="#C94E3B" transform="translate(562,106)"/>
<path d="M0 0 C0.7421875 1.71875 0.7421875 1.71875 1 4 C-0.6171875 6.21875 -0.6171875 6.21875 -2.875 8.5 C-6.72970323 12.42185834 -8 14.52198055 -8 20 C-11 22 -11 22 -15 22 C-15 22.99 -15 23.98 -15 25 C-15.66 25 -16.32 25 -17 25 C-17.28875 26.134375 -17.5775 27.26875 -17.875 28.4375 C-18.24625 29.613125 -18.6175 30.78875 -19 32 C-19.99 32.495 -19.99 32.495 -21 33 C-19.13187804 25.88530503 -16.04067378 20.64536638 -11.625 14.8125 C-10.77808594 13.66104492 -10.77808594 13.66104492 -9.9140625 12.48632812 C-6.74321585 8.20348316 -3.45489983 4.05659586 0 0 Z " fill="#D76254" transform="translate(60,65)"/>
<path d="M0 0 C0.46148437 0.35191406 0.92296875 0.70382812 1.3984375 1.06640625 C9.28645001 7.03697698 16.99184085 12.82955595 26 17 C25.34 17.33 24.68 17.66 24 18 C22.7625 17.566875 22.7625 17.566875 21.5 17.125 C17.62829624 15.88052379 14.11325715 15.58524706 10.07421875 15.34375 C9.38972656 15.2303125 8.70523437 15.116875 8 15 C7.67 14.34 7.34 13.68 7 13 C7.66 13 8.32 13 9 13 C8.67 11.68 8.34 10.36 8 9 C7.01 9.33 6.02 9.66 5 10 C4.9175 9.21625 4.835 8.4325 4.75 7.625 C4.27193661 4.85250896 4.27193661 4.85250896 1.9375 3.6875 C1.298125 3.460625 0.65875 3.23375 0 3 C0 2.01 0 1.02 0 0 Z " fill="#DD4336" transform="translate(347,287)"/>
<path d="M0 0 C3.0390625 0.2421875 3.0390625 0.2421875 6.625 0.875 C8.40777344 1.18050781 8.40777344 1.18050781 10.2265625 1.4921875 C11.14179688 1.65976563 12.05703125 1.82734375 13 2 C10.63186818 3.57875455 8.71519075 4.6260272 6.12890625 5.69140625 C5.38962891 5.99626953 4.65035156 6.30113281 3.88867188 6.61523438 C2.7372168 7.08413086 2.7372168 7.08413086 1.5625 7.5625 C0.79873047 7.87896484 0.03496094 8.19542969 -0.75195312 8.52148438 C-4.15053888 9.91463833 -7.41313864 11.17472661 -11 12 C-11 12.66 -11 13.32 -11 14 C-12.65 14.66 -14.3 15.32 -16 16 C-16 14.68 -16 13.36 -16 12 C-14.02 11.67 -12.04 11.34 -10 11 C-10 10.34 -10 9.68 -10 9 C-8.68 9 -7.36 9 -6 9 C-6 8.34 -6 7.68 -6 7 C-4.68 7 -3.36 7 -2 7 C-2 6.34 -2 5.68 -2 5 C-1.34 5 -0.68 5 0 5 C0 4.34 0 3.68 0 3 C-0.66 2.67 -1.32 2.34 -2 2 C-1.34 1.34 -0.68 0.68 0 0 Z " fill="#DA4234" transform="translate(162,146)"/>
<path d="M0 0 C1.33333333 0 2.66666667 0 4 0 C3.88831111 4.39627438 3.75813497 8.79182695 3.625 13.1875 C3.5940625 14.41404297 3.563125 15.64058594 3.53125 16.90429688 C3.27635364 24.95477373 2.97929716 33.15638234 1 41 C0.01 41.495 0.01 41.495 -1 42 C-0.83628906 40.86691406 -0.67257812 39.73382813 -0.50390625 38.56640625 C0.33076662 31.0543504 0.10524808 23.48455199 0.0625 15.9375 C0.05747503 14.38867332 0.05291388 12.83984507 0.04882812 11.29101562 C0.03790138 7.52730424 0.02069175 3.76366985 0 0 Z " fill="#DE695B" transform="translate(488,208)"/>
<path d="M0 0 C0 0.33 0 0.66 0 1 C-1.35931641 1.16435547 -1.35931641 1.16435547 -2.74609375 1.33203125 C-9.02683083 2.14952401 -14.88230636 3.06509294 -20.82421875 5.26953125 C-24.78314083 6.59864872 -28.89502798 7.27156029 -33 8 C-33.33 8.99 -33.66 9.98 -34 11 C-40.06266015 13.4021861 -40.06266015 13.4021861 -43.23046875 12.04296875 C-44.10638672 11.52669922 -44.10638672 11.52669922 -45 11 C-36.94759679 7.06176582 -28.9602311 4.23607782 -20.25 2.125 C-19.38802002 1.91012939 -18.52604004 1.69525879 -17.63793945 1.47387695 C-11.68522677 0.09938793 -6.09899632 -0.24937104 0 0 Z " fill="#C64E43" transform="translate(136,31)"/>
<path d="M0 0 C13.34665875 4.99007456 24.16887133 15.06545704 33 26 C29.16444775 24.4373676 26.86390275 21.93550032 24 19 C21.63654519 16.93197704 20.50658475 16.07236925 17.375 15.625 C16.59125 15.41875 15.8075 15.2125 15 15 C14.71125 14.195625 14.4225 13.39125 14.125 12.5625 C13.568125 11.2940625 13.568125 11.2940625 13 10 C9.46485707 8.62032476 9.46485707 8.62032476 6 8 C6 7.01 6 6.02 6 5 C4.03852126 3.61061923 2.03833424 2.2739589 0 1 C0 0.67 0 0.34 0 0 Z " fill="#C84B42" transform="translate(508,44)"/>
<path d="M0 0 C0.33 0 0.66 0 1 0 C1.62372913 8.73220784 -0.04467646 19.08935293 -4 27 C-4.66 27 -5.32 27 -6 27 C-6 28.65 -6 30.3 -6 32 C-6.33 32 -6.66 32 -7 32 C-7 29.69 -7 27.38 -7 25 C-6.34 25 -5.68 25 -5 25 C-5.061875 23.1128125 -5.061875 23.1128125 -5.125 21.1875 C-5.2390374 17.70935927 -5.05925681 17.08888522 -3 14 C-2.57859131 11.99211153 -2.23109852 9.9680175 -1.9375 7.9375 C-1.09433962 2.18867925 -1.09433962 2.18867925 0 0 Z " fill="#D56D65" transform="translate(566,311)"/>
<path d="M0 0 C0.66 0.33 1.32 0.66 2 1 C-0.65919277 3.34197942 -3.32670221 5.67413441 -6 8 C-6.56976563 8.49757813 -7.13953125 8.99515625 -7.7265625 9.5078125 C-10.34650945 11.75156194 -12.81125805 13.65091687 -16 15 C-16 15.66 -16 16.32 -16 17 C-19 19 -19 19 -21.1875 18.625 C-22.0846875 18.315625 -22.0846875 18.315625 -23 18 C-22.360625 17.731875 -21.72125 17.46375 -21.0625 17.1875 C-18.66868314 16.11332248 -18.66868314 16.11332248 -18 13 C-15.95003473 11.23957785 -13.91258723 9.60892704 -11.75 8 C-11.17636719 7.56171875 -10.60273437 7.1234375 -10.01171875 6.671875 C-6.79800248 4.24145632 -3.59694777 1.83673929 0 0 Z " fill="#C84D42" transform="translate(84,46)"/>
<path d="M0 0 C0.33 0.66 0.66 1.32 1 2 C0.67 2.66 0.34 3.32 0 4 C-0.99 4 -1.98 4 -3 4 C-3.20109375 4.94230469 -3.4021875 5.88460938 -3.609375 6.85546875 C-5 10 -5 10 -7.828125 11.42578125 C-9.52195312 11.86470703 -9.52195312 11.86470703 -11.25 12.3125 C-12.36890625 12.61800781 -13.4878125 12.92351562 -14.640625 13.23828125 C-17.75131574 13.94361229 -20.84775551 14.51761107 -24 15 C-21.65669602 13.03162466 -19.63805503 11.85241079 -16.78125 10.6875 C-12.84044364 9.03560035 -9.51883761 6.80058689 -6.0625 4.3125 C-5.47404297 3.89677734 -4.88558594 3.48105469 -4.27929688 3.05273438 C-2.8487805 2.04090572 -1.42378858 1.02127391 0 0 Z " fill="#D9594C" transform="translate(461,291)"/>
<path d="M0 0 C6.41520012 -0.19168925 12.02058627 0.3862757 18.25 1.875 C19.02601563 2.04902344 19.80203125 2.22304688 20.6015625 2.40234375 C24.55687216 3.3135499 28.27551079 4.34632679 32 6 C28.45332822 7.25127906 26.27746562 6.72285053 22.75 5.5625 C21.85796875 5.27503906 20.9659375 4.98757812 20.046875 4.69140625 C19.37140625 4.46324219 18.6959375 4.23507813 18 4 C17.67 4.66 17.34 5.32 17 6 C15.02 5.34 13.04 4.68 11 4 C11 3.34 11 2.68 11 2 C7.37 1.67 3.74 1.34 0 1 C0 0.67 0 0.34 0 0 Z " fill="#CA473F" transform="translate(462,31)"/>
<path d="M0 0 C-0.66 0 -1.32 0 -2 0 C-2 0.66 -2 1.32 -2 2 C-3.32 2 -4.64 2 -6 2 C-6 2.66 -6 3.32 -6 4 C-5.34 4.33 -4.68 4.66 -4 5 C-4.969375 5.28875 -5.93875 5.5775 -6.9375 5.875 C-10.10664203 6.64214682 -10.10664203 6.64214682 -11 9 C-11.2275015 10.87056791 -11.40962811 12.74685958 -11.5625 14.625 C-11.68818359 16.12933594 -11.68818359 16.12933594 -11.81640625 17.6640625 C-11.87699219 18.43492187 -11.93757813 19.20578125 -12 20 C-14.47552443 16.28671335 -14.54010105 13.30393027 -14 9 C-11.46971255 3.14038696 -6.50694248 -1.95208275 0 0 Z " fill="#79B9AB" transform="translate(407,243)"/>
<path d="M0 0 C0.33 0 0.66 0 1 0 C1.05786668 3.79160297 1.09355054 7.58309311 1.125 11.375 C1.14175781 12.45523438 1.15851563 13.53546875 1.17578125 14.6484375 C1.18222656 15.6796875 1.18867188 16.7109375 1.1953125 17.7734375 C1.20578613 18.72653809 1.21625977 19.67963867 1.22705078 20.66162109 C1 23 1 23 -1 25 C-3.70556641 25.22705078 -3.70556641 25.22705078 -7.1015625 25.1953125 C-8.91914063 25.18564453 -8.91914063 25.18564453 -10.7734375 25.17578125 C-12.04445312 25.15902344 -13.31546875 25.14226562 -14.625 25.125 C-15.90375 25.11597656 -17.1825 25.10695312 -18.5 25.09765625 C-21.66685167 25.07402303 -24.83333424 25.04107629 -28 25 C-28 24.67 -28 24.34 -28 24 C-19.75 24 -11.5 24 -3 24 C-3 23.34 -3 22.68 -3 22 C-2.34 21.67 -1.68 21.34 -1 21 C-0.67 14.07 -0.34 7.14 0 0 Z " fill="#6E6087" transform="translate(238,218)"/>
<path d="M0 0 C0.33 0 0.66 0 1 0 C1.28599705 7.29292478 1.30769324 16.38461352 -2 23 C-2.2275015 24.87056791 -2.40962811 26.74685958 -2.5625 28.625 C-2.64628906 29.62789062 -2.73007812 30.63078125 -2.81640625 31.6640625 C-2.87699219 32.43492187 -2.93757813 33.20578125 -3 34 C-3.33 34 -3.66 34 -4 34 C-4.5850749 22.07097282 -2.992946 11.5442203 0 0 Z " fill="#D26F64" transform="translate(34,107)"/>
<path d="M0 0 C2.475 0.495 2.475 0.495 5 1 C-1.77237055 6.86938781 -10.38964893 12.30926529 -19 15 C-19.66 14.67 -20.32 14.34 -21 14 C-20.28972656 13.66226562 -19.57945312 13.32453125 -18.84765625 12.9765625 C-17.46900391 12.30753906 -17.46900391 12.30753906 -16.0625 11.625 C-15.14597656 11.18414062 -14.22945313 10.74328125 -13.28515625 10.2890625 C-10.87096198 9.20800838 -10.87096198 9.20800838 -10 7 C-8.35 7 -6.7 7 -5 7 C-4.67 5.68 -4.34 4.36 -4 3 C-3.34 3 -2.68 3 -2 3 C-1.34 2.01 -0.68 1.02 0 0 Z " fill="#C3493B" transform="translate(517,388)"/>
<path d="M0 0 C0.33 0.66 0.66 1.32 1 2 C1.66 2 2.32 2 3 2 C3.165 2.639375 3.33 3.27875 3.5 3.9375 C4.781786 6.16119241 4.781786 6.16119241 6.9140625 6.48828125 C8.93575155 6.7275978 10.96841939 6.86893028 13 7 C12.67 7.66 12.34 8.32 12 9 C4.50559651 8.5003731 -1.95650263 6.56235522 -9 4 C-8.401875 3.855625 -7.80375 3.71125 -7.1875 3.5625 C-4.10970438 2.77106684 -2.28457274 2.28457274 0 0 Z " fill="#D24130" transform="translate(110,400)"/>
<path d="M0 0 C-7.78663572 4.6865112 -15.18323675 4.47756121 -24.0625 4.25 C-25.41859325 4.22989291 -26.77471547 4.21164961 -28.13085938 4.1953125 C-31.42132486 4.14847313 -34.71027835 4.08288862 -38 4 C-38 3.67 -38 3.34 -38 3 C-36.741875 2.96261719 -35.48375 2.92523438 -34.1875 2.88671875 C-24.21229681 2.52466017 -14.74844284 1.66313937 -4.9921875 -0.4765625 C-2 -1 -2 -1 0 0 Z " fill="#D4675A" transform="translate(434,308)"/>
<path d="M0 0 C0.33 0 0.66 0 1 0 C3.15721701 7.47321608 4.46530864 14.21038876 4 22 C4.66 22 5.32 22 6 22 C6.33 24.64 6.66 27.28 7 30 C1.30412906 24.30412906 0.34938462 13.03399071 -0.19140625 5.2421875 C-0.18827263 3.49363007 -0.10685463 1.74529224 0 0 Z " fill="#D47365" transform="translate(30,309)"/>
<path d="M0 0 C2.33944736 0.28730055 4.6739143 0.61936779 7 1 C1.66666667 6.33333333 -3.66666667 11.66666667 -9 17 C-8.34 15.02 -7.68 13.04 -7 11 C-6.34 11 -5.68 11 -5 11 C-4.67 9.68 -4.34 8.36 -4 7 C-3.01 7 -2.02 7 -1 7 C-1.020625 6.030625 -1.04125 5.06125 -1.0625 4.0625 C-1 1 -1 1 0 0 Z " fill="#D64534" transform="translate(139,161)"/>
<path d="M0 0 C0.33 0.66 0.66 1.32 1 2 C-1.23815621 8.59667093 -1.23815621 8.59667093 -4.125 10.125 C-4.74375 10.41375 -5.3625 10.7025 -6 11 C-6.2165625 12.2375 -6.2165625 12.2375 -6.4375 13.5 C-6.623125 14.325 -6.80875 15.15 -7 16 C-9.88909849 17.59660706 -11.69058796 18 -15 18 C-14.28972656 17.22914063 -13.57945312 16.45828125 -12.84765625 15.6640625 C-11.9191529 14.65114976 -10.99077394 13.63812299 -10.0625 12.625 C-9.59392578 12.11710937 -9.12535156 11.60921875 -8.64257812 11.0859375 C-6.02273232 8.25734146 -6.02273232 8.25734146 -4 5 C-3.34 5 -2.68 5 -2 5 C-1.855625 4.360625 -1.71125 3.72125 -1.5625 3.0625 C-1 1 -1 1 0 0 Z " fill="#DB5E56" transform="translate(477,272)"/>
<path d="M0 0 C0.33 0 0.66 0 1 0 C-0.50922509 14.33763838 -0.50922509 14.33763838 -6 20 C-6.66 20 -7.32 20 -8 20 C-6.54884678 15.42111848 -4.79418096 11.02350565 -2.875 6.625 C-2.59785156 5.98433594 -2.32070313 5.34367187 -2.03515625 4.68359375 C-1.35899615 3.12143075 -0.67981293 1.56057685 0 0 Z " fill="#DC4F46" transform="translate(486,252)"/>
<path d="M0 0 C0.98613281 0.04833984 1.97226562 0.09667969 2.98828125 0.14648438 C4.53708984 0.2305957 4.53708984 0.2305957 6.1171875 0.31640625 C7.15746094 0.36861328 8.19773437 0.42082031 9.26953125 0.47460938 C11.84403866 0.60451571 14.41818046 0.73948877 16.9921875 0.87890625 C16.9921875 1.20890625 16.9921875 1.53890625 16.9921875 1.87890625 C16.38745605 1.86730469 15.78272461 1.85570312 15.15966797 1.84375 C12.39417953 1.81409897 9.63261038 1.84598455 6.8671875 1.87890625 C5.44019531 1.84990234 5.44019531 1.84990234 3.984375 1.8203125 C-1.51455172 1.89091294 -1.51455172 1.89091294 -6.02636719 4.7265625 C-7.52054734 6.7188027 -8.82131801 8.69152114 -10.0078125 10.87890625 C-11.0078125 7.87890625 -11.0078125 7.87890625 -10.30078125 6.08984375 C-9.75357422 5.18105469 -9.75357422 5.18105469 -9.1953125 4.25390625 C-8.83824219 3.64289063 -8.48117187 3.031875 -8.11328125 2.40234375 C-5.88225001 -0.67222228 -3.51517296 -0.18181929 0 0 Z " fill="#FEE6DC" transform="translate(273.0078125,267.12109375)"/>
<path d="M0 0 C5.27480063 1.65779448 8.55336036 4.56701515 11.375 9.3125 C12.26095193 13.12209331 11.65236075 16.15107159 11 20 C10.67 20 10.34 20 10 20 C9.814375 18.205625 9.814375 18.205625 9.625 16.375 C8.94149552 11.01145131 8.94149552 11.01145131 7 6 C4.4601693 4.32755524 1.82345822 3.11625092 -1 2 C-0.67 1.34 -0.34 0.68 0 0 Z " fill="#7DBFAE" transform="translate(410,242)"/>
<path d="M0 0 C0.66 1.32 1.32 2.64 2 4 C-0.49272439 7.20493136 -2.97681337 10.27913203 -6 13 C-6.66 13 -7.32 13 -8 13 C-8 13.66 -8 14.32 -8 15 C-8.66 14.67 -9.32 14.34 -10 14 C-8.96126065 10.88378196 -8.27236027 10.18558756 -6 8 C-4.91609404 6.62072308 -3.85388564 5.22415608 -2.8125 3.8125 C-2.28269531 3.09707031 -1.75289062 2.38164062 -1.20703125 1.64453125 C-0.80871094 1.10183594 -0.41039062 0.55914062 0 0 Z " fill="#FCE5DE" transform="translate(134,173)"/>
<path d="M0 0 C0 0.66 0 1.32 0 2 C-0.66 2 -1.32 2 -2 2 C-2 2.66 -2 3.32 -2 4 C-3.299375 4.5259375 -3.299375 4.5259375 -4.625 5.0625 C-8.73068227 7.41946575 -11.13791503 10.29552831 -14 14 C-14.99 13.34 -15.98 12.68 -17 12 C-8.738041 4.33257403 -8.738041 4.33257403 -4 3 C-4 2.34 -4 1.68 -4 1 C-2 0 -2 0 0 0 Z " fill="#FCDAD4" transform="translate(155,157)"/>
<path d="M0 0 C5.33333333 4 10.66666667 8 16 12 C15.34 12.66 14.68 13.32 14 14 C14 13.34 14 12.68 14 12 C13.01 12 12.02 12 11 12 C11 11.34 11 10.68 11 10 C9.02 10 7.04 10 5 10 C4.9175 9.21625 4.835 8.4325 4.75 7.625 C4.27193661 4.85250896 4.27193661 4.85250896 1.9375 3.6875 C1.298125 3.460625 0.65875 3.23375 0 3 C0 2.01 0 1.02 0 0 Z " fill="#D35346" transform="translate(347,287)"/>
<path d="M0 0 C2.52234319 0.08781267 5.0415165 0.19478007 7.5625 0.3125 C8.26697266 0.33505859 8.97144531 0.35761719 9.69726562 0.38085938 C14.75955442 0.63747309 18.44555581 1.76766402 23 4 C22.67 4.66 22.34 5.32 22 6 C20.91460937 5.72285156 19.82921875 5.44570312 18.7109375 5.16015625 C17.26565719 4.7941437 15.82034288 4.4282654 14.375 4.0625 C13.66214844 3.88009766 12.94929688 3.69769531 12.21484375 3.50976562 C8.16030687 2.48683201 4.14052941 1.62042633 0 1 C0 0.67 0 0.34 0 0 Z " fill="#DA5E56" transform="translate(416,146)"/>
<path d="M0 0 C3.13138355 3.13138355 4.89746937 6.4278637 5.1875 10.875 C5.125625 11.57625 5.06375 12.2775 5 13 C5.66 13 6.32 13 7 13 C6.67 14.32 6.34 15.64 6 17 C4.5 15 4.5 15 3 13 C2.443125 12.443125 1.88625 11.88625 1.3125 11.3125 C-0.73387582 7.70698069 -0.23391774 4.05457415 0 0 Z " fill="#D86A5E" transform="translate(555,90)"/>
<path d="M0 0 C-1.78953185 0.83790789 -3.58169695 1.67019396 -5.375 2.5 C-6.87160156 3.19609375 -6.87160156 3.19609375 -8.3984375 3.90625 C-11 5 -11 5 -13 5 C-13 5.66 -13 6.32 -13 7 C-14.65 7.66 -16.3 8.32 -18 9 C-18 7.68 -18 6.36 -18 5 C-16.02 4.67 -14.04 4.34 -12 4 C-12 3.34 -12 2.68 -12 2 C-10.68 2 -9.36 2 -8 2 C-8 1.34 -8 0.68 -8 0 C-4.71303767 -0.79953138 -3.28976808 -1.09658936 0 0 Z " fill="#D74F43" transform="translate(164,153)"/>
<path d="M0 0 C2.31 0 4.62 0 7 0 C7 0.66 7 1.32 7 2 C9.31 2.33 11.62 2.66 14 3 C14 2.34 14 1.68 14 1 C14.99 1.33 15.98 1.66 17 2 C15.7734375 3.5078125 15.7734375 3.5078125 14 5 C8.86050493 5.44272804 4.08447685 4.16217562 0 1 C0 0.67 0 0.34 0 0 Z " fill="#7ABBAA" transform="translate(397,266)"/>
<path d="M0 0 C1.485 0.99 1.485 0.99 3 2 C3 2.66 3 3.32 3 4 C3.66 4 4.32 4 5 4 C5.99 5.98 6.98 7.96 8 10 C7.01 10.495 7.01 10.495 6 11 C6 10.34 6 9.68 6 9 C4.68 9.33 3.36 9.66 2 10 C0.4375 8.375 0.4375 8.375 -1 6 C-0.6875 2.75 -0.6875 2.75 0 0 Z " fill="#D45446" transform="translate(545,76)"/>
<path d="M0 0 C0.66 0.99 1.32 1.98 2 3 C1.13117188 2.90460938 0.26234375 2.80921875 -0.6328125 2.7109375 C-1.78523438 2.60007813 -2.93765625 2.48921875 -4.125 2.375 C-5.26195312 2.25898438 -6.39890625 2.14296875 -7.5703125 2.0234375 C-11.16511799 1.99887163 -13.680671 2.67832189 -17 4 C-15.51413203 1.5756891 -14.56912414 0.21760629 -11.875 -0.8125 C-7.89673341 -1.07195217 -3.86373473 -1.06271682 0 0 Z " fill="#D1728A" transform="translate(441,216)"/>
<path d="M0 0 C1.32 0 2.64 0 4 0 C4 0.66 4 1.32 4 2 C6.07933197 3.11392784 7.70299011 3.9639988 10.0625 4.25 C12 5 12 5 13.8125 7.9375 C14.204375 8.948125 14.59625 9.95875 15 11 C14.67 11.66 14.34 12.32 14 13 C13.57589844 12.55269531 13.15179688 12.10539063 12.71484375 11.64453125 C8.73846552 7.54580292 4.68616369 4.25162379 0 1 C0 0.67 0 0.34 0 0 Z " fill="#D55146" transform="translate(456,162)"/>
<path d="M0 0 C3.31225448 1.65612724 3.76982575 4.64497931 5 8 C5.1875 10.9375 5.1875 10.9375 5 13 C5.66 13 6.32 13 7 13 C7.33 13.99 7.66 14.98 8 16 C7.01 16 6.02 16 5 16 C3.96728358 13.90163996 2.94916283 11.79609109 1.9375 9.6875 C1.36902344 8.51574219 0.80054688 7.34398437 0.21484375 6.13671875 C-1 3 -1 3 0 0 Z " fill="#D87E75" transform="translate(38,339)"/>
<path d="M0 0 C0.33 0.99 0.66 1.98 1 3 C0.34 3 -0.32 3 -1 3 C-1.66 4.32 -2.32 5.64 -3 7 C-3.66 7 -4.32 7 -5 7 C-5.99 8.485 -5.99 8.485 -7 10 C-10.125 10.1875 -10.125 10.1875 -13 10 C-10.53511103 7.33857503 -7.79550348 5.36573616 -4.8125 3.3125 C-3.91144531 2.68988281 -3.01039063 2.06726563 -2.08203125 1.42578125 C-1.39496094 0.95527344 -0.70789063 0.48476563 0 0 Z " fill="#D85446" transform="translate(249,292)"/>
<path d="M0 0 C2.05710856 3.08566284 2.78346093 5.36985312 3.6875 8.9375 C3.95949219 9.97777344 4.23148438 11.01804687 4.51171875 12.08984375 C4.97828785 14.8705956 4.93894816 16.38480882 4 19 C1.80808632 16.80808632 1.72130648 15.88522592 1 13 C0.34 12.34 -0.32 11.68 -1 11 C-0.34 11 0.32 11 1 11 C0.67 7.37 0.34 3.74 0 0 Z " fill="#DE7A71" transform="translate(562,106)"/>
<path d="M0 0 C6.95660771 0.57021375 13.31427305 2.01302694 20 4 C20 4.33 20 4.66 20 5 C12.87615459 5.66268329 6.69120815 3.25388064 0 1 C0 0.67 0 0.34 0 0 Z " fill="#FACDC4" transform="translate(376,305)"/>
<path d="M0 0 C1.65 0.33 3.3 0.66 5 1 C4.04578192 2.14926266 3.08647955 3.29430541 2.125 4.4375 C1.59132813 5.07558594 1.05765625 5.71367187 0.5078125 6.37109375 C-1 8 -1 8 -3 9 C-3.26218749 5.85375007 -3.24754367 4.38162983 -1.5 1.6875 C-1.005 1.130625 -0.51 0.57375 0 0 Z " fill="#D3422F" transform="translate(535,371)"/>
<path d="M0 0 C0.73828125 1.703125 0.73828125 1.703125 1 4 C-0.58203125 6.359375 -0.58203125 6.359375 -2.8125 8.75 C-3.90498047 9.94882813 -3.90498047 9.94882813 -5.01953125 11.171875 C-7 13 -7 13 -9 13 C-7.50923566 9.7173068 -5.61379679 7.06922559 -3.375 4.25 C-2.74335937 3.45078125 -2.11171875 2.6515625 -1.4609375 1.828125 C-0.97882812 1.22484375 -0.49671875 0.6215625 0 0 Z " fill="#D24841" transform="translate(60,65)"/>
<path d="M0 0 C2.31 0.33 4.62 0.66 7 1 C7.33 2.32 7.66 3.64 8 5 C8.639375 5.103125 9.27875 5.20625 9.9375 5.3125 C10.618125 5.539375 11.29875 5.76625 12 6 C12.33 6.99 12.66 7.98 13 9 C7.97290493 7.42903279 3.97133531 4.38006951 0 1 C0 0.67 0 0.34 0 0 Z " fill="#CC483A" transform="translate(72,386)"/>
<path d="M0 0 C3.71080883 4.42442592 6.84577733 9.17403931 10 14 C9.01 14.495 9.01 14.495 8 15 C6.5 13.625 6.5 13.625 5 12 C5 11.34 5 10.68 5 10 C4.01 10 3.02 10 2 10 C0.68373308 6.38026598 0 3.90432869 0 0 Z " fill="#D36150" transform="translate(122,266)"/>
<path d="M0 0 C1.54286547 2.31429821 2.89992755 4.54571028 4.1875 7 C4.55230469 7.680625 4.91710937 8.36125 5.29296875 9.0625 C6 11 6 11 5 14 C5 13.34 5 12.68 5 12 C4.01 12 3.02 12 2 12 C1.67 11.01 1.34 10.02 1 9 C0.34 9 -0.32 9 -1 9 C-0.67 6.03 -0.34 3.06 0 0 Z " fill="#DC5F4F" transform="translate(115,249)"/>
<path d="M0 0 C-0.99 0.33 -1.98 0.66 -3 1 C-3.33 1.99 -3.66 2.98 -4 4 C-10.06266015 6.4021861 -10.06266015 6.4021861 -13.23046875 5.04296875 C-13.81441406 4.69878906 -14.39835937 4.35460938 -15 4 C-5.77448747 -0.59225513 -5.77448747 -0.59225513 0 0 Z " fill="#D3463D" transform="translate(106,38)"/>
<path d="M0 0 C0.86011221 2.9499161 1.08299706 5.49679601 1 8.5625 C0.92062137 11.50447059 1.04891491 13.14674472 2 16 C1.01 16 0.02 16 -1 16 C-1.92350727 13.22947819 -2.16329585 11.43311242 -2.1875 8.5625 C-2.20167969 7.80066406 -2.21585937 7.03882813 -2.23046875 6.25390625 C-1.97612666 3.76652685 -1.24017196 2.15191894 0 0 Z " fill="#7880B2" transform="translate(368,221)"/>
<path d="M0 0 C0.33 0 0.66 0 1 0 C1 3.63 1 7.26 1 11 C0.34 11 -0.32 11 -1 11 C-1.309375 11.61875 -1.61875 12.2375 -1.9375 12.875 C-2.625 14.25 -3.3125 15.625 -4 17 C-6.5625 17.625 -6.5625 17.625 -9 18 C-9 17.34 -9 16.68 -9 16 C-7.68 16 -6.36 16 -5 16 C-5 14.68 -5 13.36 -5 12 C-3.35 11.34 -1.7 10.68 0 10 C0 6.7 0 3.4 0 0 Z " fill="#DE975E" transform="translate(420,198)"/>
<path d="M0 0 C2 2 2 2 2.1171875 4.2421875 C1.45707302 11.4182707 1.45707302 11.4182707 -1.0625 14.625 C-1.701875 15.07875 -2.34125 15.5325 -3 16 C-3 14.68 -3 13.36 -3 12 C-2.34 12 -1.68 12 -1 12 C-0.67 8.04 -0.34 4.08 0 0 Z " fill="#7C83AF" transform="translate(393,224)"/>
<path d="M0 0 C0.66 0 1.32 0 2 0 C2.12117188 0.67546875 2.24234375 1.3509375 2.3671875 2.046875 C2.53476562 2.93890625 2.70234375 3.8309375 2.875 4.75 C3.03742188 5.63171875 3.19984375 6.5134375 3.3671875 7.421875 C3.96796264 9.86947744 4.77997117 11.80599857 6 14 C4.68 14 3.36 14 2 14 C0.02905192 9.07262981 -0.1799928 5.21979128 0 0 Z " fill="#FDF1DD" transform="translate(391,199)"/>
<path d="M0 0 C2.31 0 4.62 0 7 0 C7.33 0.99 7.66 1.98 8 3 C11.00847418 4.22520264 11.00847418 4.22520264 14 5 C13.34 5.66 12.68 6.32 12 7 C8.04 5.02 4.08 3.04 0 1 C0 0.67 0 0.34 0 0 Z " fill="#D8594E" transform="translate(439,152)"/>
<path d="M0 0 C1.9375 0.3125 1.9375 0.3125 4 1 C4.33 1.99 4.66 2.98 5 4 C7.32891096 5.02700444 7.32891096 5.02700444 10.0625 5.6875 C10.98160156 5.93886719 11.90070313 6.19023437 12.84765625 6.44921875 C13.55792969 6.63097656 14.26820313 6.81273437 15 7 C15 7.33 15 7.66 15 8 C9.31890207 8.40579271 5.50983136 7.09152613 1.125 3.4375 C0 2 0 2 0 0 Z " fill="#DB9B63" transform="translate(395,209)"/>
<path d="M0 0 C1.9375 0.8125 1.9375 0.8125 4 2 C4.33 2.99 4.66 3.98 5 5 C5.66 5.33 6.32 5.66 7 6 C9 9 9 9 8.625 11.1875 C8.41875 11.785625 8.2125 12.38375 8 13 C6.8529806 11.20909242 5.70742065 9.41725003 4.5625 7.625 C3.60537109 6.12839844 3.60537109 6.12839844 2.62890625 4.6015625 C1 2 1 2 0 0 Z " fill="#D15446" transform="translate(472,177)"/>
<path d="M0 0 C1.32 0 2.64 0 4 0 C4 0.66 4 1.32 4 2 C5.65 1.67 7.3 1.34 9 1 C9.66 2.65 10.32 4.3 11 6 C6.49197399 4.74194623 3.5087188 3.09592835 0 0 Z " fill="#CB4839" transform="translate(85,395)"/>
<path d="M0 0 C0.66 0.33 1.32 0.66 2 1 C-1.78756477 4.61139896 -1.78756477 4.61139896 -4 6 C-6.875 5.8125 -6.875 5.8125 -9 5 C-6.32239719 2.32239719 -3.52050129 1.32018799 0 0 Z " fill="#DB5952" transform="translate(231,303)"/>
<path d="M0 0 C0.66 0 1.32 0 2 0 C2 0.99 2 1.98 2 3 C2.99 3.33 3.98 3.66 5 4 C5.765625 5.92578125 5.765625 5.92578125 6.25 8.3125 C6.50523437 9.48232422 6.50523437 9.48232422 6.765625 10.67578125 C7.00771617 13.07651867 6.7310448 14.71809588 6 17 C5.73445313 16.19175781 5.46890625 15.38351563 5.1953125 14.55078125 C4.84210938 13.48214844 4.48890625 12.41351563 4.125 11.3125 C3.77695312 10.25675781 3.42890625 9.20101562 3.0703125 8.11328125 C2.12668634 5.36850006 1.10508711 2.68307185 0 0 Z " fill="#D35146" transform="translate(481,191)"/>
<path d="M0 0 C1.32 0 2.64 0 4 0 C4.33 0.66 4.66 1.32 5 2 C4.22265625 3.9453125 4.22265625 3.9453125 3.0625 6.125 C2.68222656 6.84945313 2.30195312 7.57390625 1.91015625 8.3203125 C1.60980469 8.87460937 1.30945313 9.42890625 1 10 C0.05685873 6.58389775 -0.08065117 3.54865136 0 0 Z " fill="#DA6C60" transform="translate(554,343)"/>
<path d="M0 0 C3.465 1.98 3.465 1.98 7 4 C6.34 4.66 5.68 5.32 5 6 C1 6 1 6 -2 5 C-1.34 3.35 -0.68 1.7 0 0 Z " fill="#DB4B3B" transform="translate(146,295)"/>
<path d="M0 0 C0.33 0.66 0.66 1.32 1 2 C-0.14215904 5.42647711 -1.24737607 6.70614672 -4 9 C-6.75 9.75 -6.75 9.75 -9 10 C-8.06409496 8.8944811 -7.12620142 7.79064547 -6.1875 6.6875 C-5.66542969 6.07261719 -5.14335937 5.45773437 -4.60546875 4.82421875 C-3.12827531 3.14575321 -1.59960869 1.56117966 0 0 Z " fill="#D5594B" transform="translate(259,282)"/>
<path d="M0 0 C0.66 1.32 1.32 2.64 2 4 C2.66 4 3.32 4 4 4 C3.625 6.4375 3.625 6.4375 3 9 C2.01 9.495 2.01 9.495 1 10 C-0.83691257 6.21812119 -1.15837626 4.05431692 0 0 Z " fill="#DC3D1E" transform="translate(37,108)"/>
<path d="M0 0 C1.98 0.66 3.96 1.32 6 2 C6 2.66 6 3.32 6 4 C6.99 4.33 7.98 4.66 9 5 C8.67 5.99 8.34 6.98 8 8 C6.66372225 6.85760183 5.33104612 5.71098945 4 4.5625 C3.2575 3.92441406 2.515 3.28632813 1.75 2.62890625 C1.1725 2.09136719 0.595 1.55382812 0 1 C0 0.67 0 0.34 0 0 Z " fill="#CC4640" transform="translate(63,378)"/>
<path d="M0 0 C0.33 0.66 0.66 1.32 1 2 C-1.34375 8.5625 -1.34375 8.5625 -5 11 C-4.67 9.02 -4.34 7.04 -4 5 C-3.34 5 -2.68 5 -2 5 C-1.7834375 4.0409375 -1.7834375 4.0409375 -1.5625 3.0625 C-1 1 -1 1 0 0 Z " fill="#D64E3F" transform="translate(477,272)"/>
<path d="M0 0 C4.83256305 0.41421969 6.82679218 2.46413986 10 6 C9.67 6.66 9.34 7.32 9 8 C8.34 7.67 7.68 7.34 7 7 C7 6.01 7 5.02 7 4 C4.03 3.505 4.03 3.505 1 3 C0.67 2.01 0.34 1.02 0 0 Z " fill="#E09F6A" transform="translate(410,189)"/>
<path d="M0 0 C1.32 0.33 2.64 0.66 4 1 C1.36 3.97 -1.28 6.94 -4 10 C-4.33 9.34 -4.66 8.68 -5 8 C-4.0625 5.875 -4.0625 5.875 -3 4 C-2.34 4 -1.68 4 -1 4 C-0.67 2.68 -0.34 1.36 0 0 Z " fill="#D24D3F" transform="translate(135,168)"/>
<path d="M0 0 C3.85645121 -0.22036864 6.49223216 0.39644899 10 2 C10 2.66 10 3.32 10 4 C6.53058454 3.54177532 3.32604951 3.10868317 0 2 C0 1.34 0 0.68 0 0 Z " fill="#DD3E1E" transform="translate(98,42)"/>
<path d="M0 0 C1.65 0.33 3.3 0.66 5 1 C0.5 5 0.5 5 -4 5 C-4 4.34 -4 3.68 -4 3 C-3.34 3 -2.68 3 -2 3 C-1.34 2.01 -0.68 1.02 0 0 Z " fill="#D24133" transform="translate(517,388)"/>
<path d="M0 0 C-5.625 4 -5.625 4 -9 4 C-9.33 3.01 -9.66 2.02 -10 1 C-3.375 -1.125 -3.375 -1.125 0 0 Z " fill="#FCE1D7" transform="translate(241,299)"/>
<path d="M0 0 C4.95 0.99 4.95 0.99 10 2 C10 2.99 10 3.98 10 5 C6.05140217 4.4359146 3.29120954 3.2568294 0 1 C0 0.67 0 0.34 0 0 Z " fill="#FCDFD4" transform="translate(362,298)"/>
<path d="M0 0 C-1.70828921 2.10633718 -2.52148416 2.93801608 -5.26171875 3.29296875 C-6.06222656 3.25816406 -6.86273438 3.22335938 -7.6875 3.1875 C-8.89986328 3.14689453 -8.89986328 3.14689453 -10.13671875 3.10546875 C-11.05904297 3.05326172 -11.05904297 3.05326172 -12 3 C-7.58119757 0.05413171 -5.32232661 -0.0985616 0 0 Z " fill="#717AB0" transform="translate(388,241)"/>
<path d="M0 0 C0.99 0 1.98 0 3 0 C3 0.99 3 1.98 3 3 C2.34 3 1.68 3 1 3 C0.34 4.98 -0.32 6.96 -1 9 C-1.33 9 -1.66 9 -2 9 C-2.20140476 5.37471432 -1.85776765 3.13498292 0 0 Z " fill="#DA8B7F" transform="translate(551,353)"/>
<path d="M0 0 C1.21386936 3.64160808 0.6674695 4.33165469 -0.9375 7.6875 C-1.31777344 8.49574219 -1.69804687 9.30398438 -2.08984375 10.13671875 C-2.39019531 10.75160156 -2.69054687 11.36648438 -3 12 C-3.66 12 -4.32 12 -5 12 C-3.68938409 7.76570244 -2.05643741 3.92592596 0 0 Z " fill="#D85C54" transform="translate(483,260)"/>
<path d="M0 0 C0 0.33 0 0.66 0 1 C-2.33163378 1.67258667 -4.6652039 2.33847444 -7 3 C-7.763125 3.226875 -8.52625 3.45375 -9.3125 3.6875 C-11 4 -11 4 -13 3 C-8.51925805 -0.36055646 -5.39449293 -0.27429625 0 0 Z " fill="#8A90BD" transform="translate(384,215)"/>
<path d="M0 0 C1 3 1 3 0.0625 5.1875 C-0.4634375 6.0846875 -0.4634375 6.0846875 -1 7 C-1.99 6.67 -2.98 6.34 -4 6 C-3.67 4.35 -3.34 2.7 -3 1 C-2.01 0.67 -1.02 0.34 0 0 Z " fill="#DB3D20" transform="translate(55,77)"/>
<path d="M0 0 C1.60332791 -0.08121924 3.20784026 -0.13929134 4.8125 -0.1875 C6.15248047 -0.23970703 6.15248047 -0.23970703 7.51953125 -0.29296875 C10.41647515 0.04918998 11.22555028 0.75393573 13 3 C11.39504433 2.88557539 9.79101881 2.75805306 8.1875 2.625 C7.29417969 2.55539062 6.40085938 2.48578125 5.48046875 2.4140625 C3 2 3 2 0 0 Z " fill="#FDD9CF" transform="translate(171,307)"/>
<path d="M0 0 C3.63 0.33 7.26 0.66 11 1 C10.67 1.99 10.34 2.98 10 4 C6.7 3.01 3.4 2.02 0 1 C0 0.67 0 0.34 0 0 Z " fill="#C44B3A" transform="translate(101,403)"/>
<path d="M0 0 C-1.32 0.33 -2.64 0.66 -4 1 C-4 1.66 -4 2.32 -4 3 C-6.31 3 -8.62 3 -11 3 C-7.48550811 -0.37391222 -4.73940561 -0.27342725 0 0 Z " fill="#DA6053" transform="translate(212,310)"/>
<path d="M0 0 C2.46254526 2.1413437 3.69050349 3.69870394 4 7 C3.01 8.485 3.01 8.485 2 10 C0.68373308 6.38026598 0 3.90432869 0 0 Z " fill="#FEDED4" transform="translate(115,245)"/>
<path d="M0 0 C1.258125 0.12375 2.51625 0.2475 3.8125 0.375 C4.87404297 0.47941406 4.87404297 0.47941406 5.95703125 0.5859375 C8 1 8 1 11 3 C4.6 3.36923077 4.6 3.36923077 1.5625 1.5 C1.046875 1.005 0.53125 0.51 0 0 Z " fill="#FBE7DD" transform="translate(385,307)"/>
<path d="M0 0 C1.65 1.65 3.3 3.3 5 5 C4.01 5.33 3.02 5.66 2 6 C1.34 5.67 0.68 5.34 0 5 C0 3.35 0 1.7 0 0 Z " fill="#DD4E45" transform="translate(342,281)"/>
<path d="M0 0 C3.96 0.33 7.92 0.66 12 1 C12 1.33 12 1.66 12 2 C11.22914063 2.06058594 10.45828125 2.12117187 9.6640625 2.18359375 C8.66117187 2.26738281 7.65828125 2.35117188 6.625 2.4375 C5.12839844 2.55931641 5.12839844 2.55931641 3.6015625 2.68359375 C1.02072387 2.84965626 1.02072387 2.84965626 -1 4 C-0.67 2.68 -0.34 1.36 0 0 Z " fill="#FCDFC3" transform="translate(400,187)"/>
<path d="M0 0 C2.0625 0.4375 2.0625 0.4375 4 1 C2.71034824 2.37562854 1.37310707 3.70766393 0 5 C-0.66 5 -1.32 5 -2 5 C-1.125 1.125 -1.125 1.125 0 0 Z " fill="#D2433B" transform="translate(72,54)"/>
</svg>
